<?xml version="1.0" encoding="utf-8"?>
<!-- Generator: Adobe Illustrator 21.0.0, SVG Export Plug-In . SVG Version: 6.00 Build 0)  -->
<svg version="1.1" id="商铺" xmlns="http://www.w3.org/2000/svg" xmlns:xlink="http://www.w3.org/1999/xlink" x="0px" y="0px"
	 viewBox="0 0 5000 5000" enable-background="new 0 0 5000 5000" xml:space="preserve">
<polygon fill="#FAFAFA" points="399,1339 1029,1339 1029,1502.5 2006.7,1502.5 2006.7,1608.7 3605,1609 3755.6,1762 3755.6,1941 
	4607,1941 4607,3037 4605.4,3071.7 4599.7,3097.2 4590,3127 4582.6,3147.8 4571,3171 4558,3193 4537,3220 4513.7,3243.6 4495,3259 
	4468.9,3276.2 4439,3293 4416.7,3301 4389,3311 4358.4,3317.7 4331,3320 2141,3320.6 2141,3159 1868.3,3159 1868.3,3320.7 711,3321 
	711,3230 682.1,3227.4 655,3221 629.8,3212.4 601.1,3198.2 565,3171 540.6,3145 520.2,3119 508,3094.8 499,3063 493,3010.7 
	399,3010.7 399,1339 399,1339 "/>
<path fill="#9E9E9E" d="M1029,1339v163.5h977.7v106.2L3605,1609l150.6,153v179H4607v1096l-1.6,34.7l-5.7,25.4l-9.7,29.8l-7.4,20.8
	L4571,3171l-13,22l-21,27l-23.3,23.6L4495,3259l-26.1,17.2L4439,3293l-22.3,8l-27.7,10l-30.6,6.7l-27.4,2.3l-2190,0.6V3159h-272.7
	v161.7L711,3321v-91l-28.9-2.6L655,3221l-25.2-8.6l-28.7-14.3L565,3171l-24.4-26l-20.4-26l-12.2-24.2l-9-31.8l-6-52.3h-94V1339H1029
	 M1044,1324h-15H399h-15v15v1671.7v15h15h80.6l4.5,39l0.1,1.2l0.3,1.2l9,31.8l0.4,1.4l0.6,1.3l12.2,24.2l0.7,1.4l0.9,1.2l20.4,26
	l0.4,0.5l0.5,0.5l24.4,26l0.9,0.9l1,0.8l36.1,27.2l1.1,0.8l1.2,0.6l28.7,14.3l0.9,0.5l1,0.3l25.2,8.6l0.7,0.2l0.7,0.2l27.1,6.4
	l1.1,0.2l1.1,0.1l15.3,1.4v77.3v15l15,0l1157.3-0.3l15,0v-15V3174H2126v146.6v15l15,0l2190-0.6h0.6l0.6-0.1l27.4-2.3l1-0.1l1-0.2
	l30.6-6.7l0.9-0.2l0.9-0.3l27.7-10l22.3-8l1.2-0.4l1.1-0.6l29.9-16.8l0.5-0.3l0.4-0.3l26.1-17.2l0.7-0.4l0.6-0.5l18.7-15.4l0.6-0.5
	l0.5-0.5l23.3-23.6l0.6-0.6l0.5-0.7l21-27l0.6-0.8l0.5-0.8l13-22l0.3-0.4l0.2-0.5l11.6-23.2l0.4-0.8l0.3-0.9l7.4-20.8l0.1-0.2
	l0.1-0.2l9.7-29.8l0.2-0.7l0.2-0.7l5.7-25.4l0.3-1.3l0.1-1.3l1.6-34.7l0-0.4v-0.4V1941v-15h-15h-836.4v-164v-6.1l-4.3-4.4
	l-150.6-153l-4.4-4.5l-6.3,0l-1583.3-0.3v-91.2v-15h-15H1044V1339V1324L1044,1324L1044,1324L1044,1324z"/>
<polygon fill="#8D5EEB" points="3813.3,2870.2 3866.6,2850 3898.3,2936.7 3845,2956.8 3813.3,2870.2 3813.3,2870.2 "/>
<polygon fill="#A9A9AA" points="3845,2956.8 3839.3,2941.7 3864.1,2926.8 3892.6,2921.6 3898.3,2936.7 3845,2956.8 3845,2956.8 "/>
<polygon fill="#8D5EEB" points="2676,1908 2676,1851 2944.5,1851 2944.5,1908 2676,1908 2676,1908 "/>
<polygon fill="#A9A9AA" points="2944.5,1908 2928.3,1908 2923.2,1879.5 2928.3,1851 2944.5,1851 2944.5,1908 2944.5,1908 "/>
<polygon fill="#A9A9AA" points="2676,1851 2692.2,1851 2697.3,1879.5 2692.2,1908 2676,1908 2676,1851 2676,1851 "/>
<polygon fill="#8D5EEB" points="2718.2,2768.3 2718.2,2711.3 2965.7,2711.3 2965.7,2768.3 2718.2,2768.3 2718.2,2768.3 "/>
<polygon fill="#A9A9AA" points="2965.7,2768.3 2949.5,2768.3 2944.3,2739.8 2949.5,2711.3 2965.7,2711.3 2965.7,2768.3 
	2965.7,2768.3 "/>
<polygon fill="#A9A9AA" points="2718.2,2711.3 2734.3,2711.3 2739.5,2739.8 2734.3,2768.3 2718.2,2768.3 2718.2,2711.3 
	2718.2,2711.3 "/>
<polygon fill="#8D5EEB" points="1972.1,2711.4 2000.6,2713 1998.7,2844.8 1970.2,2843.2 1972.1,2711.4 1972.1,2711.4 "/>
<polygon fill="#A9A9AA" points="2000.6,2712.9 2000.4,2729.1 1986,2733.5 1971.9,2727.6 1972.1,2711.4 2000.6,2712.9 2000.6,2712.9 
	"/>
<polygon fill="#8D5EEB" points="2020.1,2982.1 1991.6,2980.6 1993.4,2848.8 2021.9,2850.3 2020.1,2982.1 2020.1,2982.1 "/>
<polygon fill="#A9A9AA" points="1991.6,2980.6 1991.8,2964.4 2006.1,2960 2020.3,2965.9 2020.1,2982.1 1991.6,2980.6 1991.6,2980.6 
	"/>
<polygon fill="#8D5EEB" points="1231,1929 1231,1872 1488,1872 1488,1929 1231,1929 1231,1929 "/>
<polygon fill="#A9A9AA" points="1488,1929 1471.8,1929 1466.7,1900.5 1471.8,1872 1488,1872 1488,1929 1488,1929 "/>
<polygon fill="#A9A9AA" points="1231,1872 1247.2,1872 1252.3,1900.5 1247.2,1929 1231,1929 1231,1872 1231,1872 "/>
<polygon fill="#8D5EEB" points="734.5,2077 791.5,2077 791.5,2338.9 734.5,2338.9 734.5,2077 734.5,2077 "/>
<polygon fill="#A9A9AA" points="734.5,2338.9 734.5,2322.7 763,2317.6 791.5,2322.7 791.5,2338.9 734.5,2338.9 734.5,2338.9 "/>
<polygon fill="#8D5EEB" points="520.2,2955.7 565,2955.7 565,3002.7 520.2,3002.7 520.2,2955.7 520.2,2955.7 "/>
<polygon fill="#8D5EEB" points="674.2,3153.7 719,3153.7 719,3200.7 674.2,3200.7 674.2,3153.7 674.2,3153.7 "/>
<polygon fill="#8D5EEB" points="1502.8,1968.5 1548.3,1954.4 1579,2053.9 1533.5,2068 1502.8,1968.5 1502.8,1968.5 "/>
<polygon fill="#8D5EEB" points="4056.5,2350.5 4155,2350.5 4155,2396 4056.5,2396 4056.5,2350.5 4056.5,2350.5 "/>
<polygon fill="#8D5EEB" points="4195.2,2257.8 4375,2257.8 4375,2303.3 4195.2,2303.3 4195.2,2257.8 4195.2,2257.8 "/>
<polygon fill="#8D5EEB" points="2361,2436.5 2412,2436.5 2412,2537 2361,2537 2361,2436.5 2361,2436.5 "/>
<polygon fill="#8D5EEB" points="1687.5,1512.5 1938,1512.5 1938,1680 1790,1680 1790,1659 1687.5,1659 1687.5,1512.5 1687.5,1512.5 
	"/>
<polygon fill="#8D5EEB" points="1687.5,1690 1721,1690 1721,1754 1687.5,1754 1687.5,1690 1687.5,1690 "/>
<polygon fill="#8D5EEB" points="1731,1690 1821.5,1690 1821.5,1754 1731,1754 1731,1690 1731,1690 "/>
<polygon fill="#8D5EEB" points="1687.5,1764 1821.5,1764 1821.5,1798.5 1687.5,1798.5 1687.5,1764 1687.5,1764 "/>
<polygon fill="#8D5EEB" points="801.5,2077 876.5,2077 890,2081 906,2090 919,2100.5 929,2114.5 935.5,2130.5 938,2150.5 
	938,2169.5 933,2191 928,2205.5 917,2220.5 902.5,2233.5 888,2240.5 873,2242.5 801.5,2242.5 801.5,2077 801.5,2077 "/>
<polygon fill="#8D5EEB" points="1502.8,1968.5 1548.3,1954.4 1579,2053.9 1533.5,2068 1502.8,1968.5 1502.8,1968.5 "/>
<polygon fill="#8D5EEB" points="4056.5,2350.5 4155,2350.5 4155,2396 4056.5,2396 4056.5,2350.5 4056.5,2350.5 "/>
<polygon fill="#8D5EEB" points="4195.2,2257.8 4375,2257.8 4375,2303.3 4195.2,2303.3 4195.2,2257.8 4195.2,2257.8 "/>
<polygon fill="#8D5EEB" points="2361,2436.5 2412,2436.5 2412,2537 2361,2537 2361,2436.5 2361,2436.5 "/>
<polygon fill="#8D5EEB" points="1687.5,1512.5 1938,1512.5 1938,1680 1790,1680 1790,1659 1687.5,1659 1687.5,1512.5 1687.5,1512.5 
	"/>
<polygon fill="#8D5EEB" points="1687.5,1690 1721,1690 1721,1754 1687.5,1754 1687.5,1690 1687.5,1690 "/>
<polygon fill="#8D5EEB" points="1731,1690 1821.5,1690 1821.5,1754 1731,1754 1731,1690 1731,1690 "/>
<polygon fill="#8D5EEB" points="1687.5,1764 1821.5,1764 1821.5,1798.5 1687.5,1798.5 1687.5,1764 1687.5,1764 "/>
<polygon fill="#8D5EEB" points="801.5,2077 876.5,2077 890,2081 906,2090 919,2100.5 929,2114.5 935.5,2130.5 938,2150.5 
	938,2169.5 933,2191 928,2205.5 917,2220.5 902.5,2233.5 888,2240.5 873,2242.5 801.5,2242.5 801.5,2077 801.5,2077 "/>
<polygon fill="#C2C2C2" points="4395,2653.7 4597,2653.7 4597,2904.3 4488.3,2904.3 4488.3,2836.3 4395,2836.3 4395,2653.7 
	4395,2653.7 "/>
<polygon fill="#C2C2C2" points="4008.3,1951.7 4607,1951.7 4607,2142.3 4422.3,2142.3 4422.3,2206.3 4199.7,2206.3 4199.7,2247.8 
	4008.3,2247.8 4008.3,1951.7 4008.3,1951.7 "/>
<polygon fill="#C2C2C2" points="4195.2,2313.3 4385,2313.3 4385,2257.8 4401.3,2257.8 4401.3,2340.5 4195.2,2340.5 4195.2,2313.3 
	4195.2,2313.3 "/>
<polygon fill="#C2C2C2" points="2151,1720.3 2370.5,1720.3 2370.5,1618.7 2505.3,1618.7 2505.3,1754 2151,1754 2151,1720.3 
	2151,1720.3 "/>
<polygon fill="#C2C2C2" points="3100,1618.7 3284.3,1618.7 3284.3,1685.7 3100,1685.7 3100,1618.7 3100,1618.7 "/>
<polygon fill="#C2C2C2" points="3180.3,1765 3411,1765 3411,1618.3 3601,1618.3 3745.6,1763.7 3745.6,1917.7 3606.7,1917.7 
	3606.7,1755 3431,1755 3431,1920.3 3180.3,1920.3 3180.3,1765 3180.3,1765 "/>
<polygon fill="#C2C2C2" points="3437,2543 3295.5,2543 3295.5,2652.5 3437,2652.5 3437,2543 3437,2543 "/>
<polygon fill="#C2C2C2" points="2978.3,3136.3 2978.3,3309 3280.5,3309 3280.5,3136.3 2978.3,3136.3 2978.3,3136.3 "/>
<polygon fill="#C2C2C2" points="1787,2631 1888,2631 1888,3031.5 1712.1,3031.5 1712.1,2928 1787,2928 1787,2631 1787,2631 "/>
<polygon fill="#838CF2" points="2149.3,3003 2225,3003 2225,2698 2149.3,2698 2149.3,3003 2149.3,3003 "/>
<polygon fill="#838CF2" points="2358.5,2945.7 2358.5,3035 2397.3,3032 2425.3,3029 2436.7,3026.7 2436.7,2945.7 2358.5,2945.7 
	2358.5,2945.7 "/>
<polygon fill="#838CF2" points="2149.3,2532 2304.7,2532 2304.7,2399 2149.3,2399 2149.3,2532 2149.3,2532 "/>
<polygon fill="#838CF2" points="2446.7,2547 2446.7,2843.8 2606.5,2843.8 2615.8,2814 2627.5,2784.5 2634,2766 2638.3,2757.3 
	2644,2747 2649.5,2738 2658.5,2725 2665.8,2712.8 2675.5,2699.8 2685.8,2687.5 2700.5,2672 2713.5,2660 2736.8,2642.5 
	2759.5,2630.3 2776.8,2622 2792.3,2615.3 2808.8,2610.5 2831,2605.5 2831,2547 2446.7,2547 2446.7,2547 "/>
<polygon fill="#C2C2C2" points="2436.7,2547 2358.5,2547 2358.5,2935.7 2436.7,2935.7 2436.7,2547 2436.7,2547 "/>
<polygon fill="#838CF2" points="2446.7,3024.6 2468.5,3020 2490.1,3015.5 2510.8,3009.8 2528.3,3001.3 2539.3,2992 2549,2982.3 
	2559.5,2969 2568,2956.8 2577.8,2940.5 2585.3,2924.5 2589.2,2911.7 2446.7,2911.7 2446.7,3024.6 2446.7,3024.6 "/>
<polygon fill="#838CF2" points="2281.5,2177.8 2246.8,2180 2201.8,2185.8 2178.8,2191 2166.8,2196 2158.3,2206.3 2152,2218.5 
	2149.3,2231.5 2149.3,2389 2309,2389 2309,2390 2356,2390 2356,2177.8 2281.5,2177.8 2281.5,2177.8 "/>
<polygon fill="#838CF2" points="2149.3,2688 2225,2688 2225,2656 2304.7,2656 2304.7,2542 2149.3,2542 2149.3,2688 2149.3,2688 "/>
<polygon fill="#838CF2" points="2669.5,2537 2669.5,2350 2657,2345.3 2638.8,2338 2620.5,2328.8 2602.8,2319.8 2585.8,2310.5 
	2570.3,2299.5 2549,2283.3 2525.1,2264.3 2525.1,2537 2669.5,2537 2669.5,2537 "/>
<polygon fill="#838CF2" points="2831,2537 2831,2377 2786,2375 2757.3,2372.5 2739.5,2369.5 2716.5,2364 2697.3,2359 2679.5,2353.8 
	2679.5,2537 2831,2537 2831,2537 "/>
<polygon fill="#838CF2" points="2515.1,2255.9 2485,2228.8 2464.5,2211.3 2449,2201 2433.8,2193.3 2420.5,2187.8 2401.8,2181.8 
	2379,2177.8 2366,2177.8 2366,2390 2469.7,2390 2470.3,2537 2515.1,2537 2515.1,2255.9 2515.1,2255.9 "/>
<polygon fill="#838CF2" points="409,1963 569.5,1963 569.5,1859.8 409,1859.8 409,1963 409,1963 "/>
<polygon fill="#838CF2" points="569.5,1722.3 409,1722.3 409,1849.8 569.5,1849.8 569.5,1722.3 569.5,1722.3 "/>
<polygon fill="#838CF2" points="841.7,1797.7 841.7,1761.7 725.5,1761.7 725.5,1963.1 879,1972.3 879,1797.7 841.7,1797.7 
	841.7,1797.7 "/>
<polygon fill="#838CF2" points="889,1797.7 889,1972.9 962.3,1977.3 995.8,1975.3 1011.8,1972.8 1031.3,1966.8 1052.5,1957.3 
	1069.5,1945.5 1083.5,1933 1094,1923.3 1107.8,1908 1124.3,1886.3 1124.3,1797.7 889,1797.7 889,1797.7 "/>
<polygon fill="#838CF2" points="620.3,1761.7 620.3,1722.3 579.5,1722.3 579.5,1963 715.5,1963 715.5,1761.7 620.3,1761.7 
	620.3,1761.7 "/>
<polygon fill="#838CF2" points="1187,1815 1187,1606.3 1494.5,1606.3 1494.5,1717 1521.5,1744.5 1494,1785.5 1477.3,1772.9 
	1459,1760.5 1436.2,1750.4 1424.5,1746 1402.4,1740.4 1377.5,1736.5 1346,1736.5 1313,1741 1288.5,1749 1266.5,1758 1248,1769 
	1227,1783.5 1206,1799.5 1187,1815 1187,1815 "/>
<polygon fill="#838CF2" points="1545,1831.7 1579,1805.7 1831.5,1805.7 1831.5,1690 1948,1690 1948,1607 1996.3,1607 1996.3,1981.7 
	1994,2005.7 1989,2023 1982.7,2035.8 1974.7,2047.7 1959.3,2060.3 1946.7,2068 1934.8,2073.1 1920,2078 1891.7,2083.7 1845,2087 
	1782.3,2084.3 1755.7,2081.7 1744.7,2078 1727,2071 1709,2059 1681.7,2028.3 1671.2,2007.9 1654.3,1979 1644.8,1961.5 1630,1939 
	1608,1905 1595.1,1887.9 1582.3,1872 1545,1831.7 1545,1831.7 "/>
<polygon fill="#C2C2C2" points="1947.7,1512.5 1996.3,1512.5 1996.3,1597 1947.7,1597 1947.7,1512.5 1947.7,1512.5 "/>
<polygon fill="#C2C2C2" points="409,1712.3 409,1348.7 1019,1348.7 1019,1512.5 1647.5,1512 1647.5,1747.7 1538.7,1747.7 
	1504.3,1713 1504.3,1597 1177,1597 1177,1829 1134.3,1880 1134.3,1787.7 851.7,1787.7 851.7,1751.7 630.5,1751.7 630.5,1712.3 
	409,1712.3 409,1712.3 "/>
<polygon fill="#838CF2" points="4149.7,2775.7 4385,2775.7 4385,2653.7 4197.7,2653.7 4186.8,2655 4180,2657.6 4176,2659.8 
	4171.7,2662.6 4164.5,2668.3 4159.5,2673 4155.1,2678.8 4151.3,2685.1 4149,2692 4147.8,2697.8 4147.3,2703.3 4147.3,2708.5 
	4149.7,2775.7 4149.7,2775.7 "/>
<polygon fill="#838CF2" points="4150,2785.7 4385,2785.7 4385,2847 4478.5,2847 4478.5,2914.5 4597,2914.5 4597,3010 4316.5,3010 
	4289.3,3006.3 4261,2998.3 4236,2986.8 4214.8,2972.5 4203,2962.5 4192.5,2951 4176.5,2927 4165.8,2906.3 4157.5,2885.5 
	4155,2875.3 4153.3,2863.8 4150,2785.7 4150,2785.7 "/>
<polygon fill="#838CF2" points="4165,2406 4165,2350.5 4411.7,2350.5 4411.7,2257.8 4596.7,2257.8 4596.7,2562.7 4008.3,2562.7 
	4008.3,2350.5 4046.5,2350.5 4046.5,2406 4165,2406 4165,2406 "/>
<polygon fill="#838CF2" points="3998.3,2350.5 3888,2350.5 3877,2373.3 3870.5,2388.5 3863,2410.5 3859.5,2431.5 3859.5,2450 
	3863,2473 3870.5,2492.5 3881.5,2512.5 3893,2526 3903,2534 3923.5,2546.5 3940.5,2554 3956.6,2558.7 3976,2561.7 3998.3,2562.7 
	3998.3,2350.5 3998.3,2350.5 "/>
<polygon fill="#838CF2" points="3474,2179.7 3474,2285 3474.7,2290.7 3476,2296.3 3477.9,2299.8 3480.7,2305 3486.7,2309.3 
	3493.7,2311.7 3498.7,2312.7 3558,2312.7 3564.3,2310.7 3569,2308.7 3572.1,2306.3 3577.3,2301.3 3580.2,2297.4 3582.3,2293.7 
	3583.7,2286 3583.7,2184.7 3580.3,2173.7 3577.1,2167.6 3573.7,2163.3 3569.1,2160.1 3564,2156.7 3557,2154.7 3500.7,2154.7 
	3495,2155.7 3487.3,2158.3 3483,2162 3477.3,2169 3475.3,2175.6 3474,2179.7 3474,2179.7 "/>
<polygon fill="#838CF2" points="4013.2,2662.2 3909.4,2662.2 3905.4,2662.6 3901.4,2663.6 3899,2664.9 3895.4,2666.8 3892.3,2671 
	3890.7,2675.9 3890,2679.4 3890,2721 3891.4,2725.5 3892.8,2728.7 3894.4,2730.9 3897.9,2734.6 3900.7,2736.6 3903.3,2738.1 
	3908.7,2739 4009.7,2739 4017.4,2736.7 4021.6,2734.4 4024.6,2732 4026.9,2728.8 4029.3,2725.2 4030.7,2720.3 4030.7,2680.8 
	4030,2676.9 4028.1,2671.5 4025.6,2668.5 4020.7,2664.5 4016,2663 4013.2,2662.2 4013.2,2662.2 "/>
<polygon fill="#838CF2" points="3748.5,2737 3782.9,2831.6 3784.5,2835.1 3786.6,2838.4 3788.5,2840.2 3791.4,2842.9 3796.2,2844.4 
	3801.2,2844.4 3804.6,2844 3842.4,2831.3 3846,2828.6 3848.6,2826.3 3850,2824.2 3852.3,2819.9 3853.3,2816.8 3853.9,2813.9 
	3853.1,2808.7 3819.6,2716.7 3815.1,2710.4 3811.8,2707.2 3808.6,2705.2 3805.1,2704.2 3801.1,2703.1 3796.2,2703.3 3760.2,2715.3 
	3756.8,2717.2 3752.5,2720.5 3750.5,2723.8 3748.4,2729.5 3748.5,2734.2 3748.5,2737 3748.5,2737 "/>
<polygon fill="#838CF2" points="3180.3,1930.3 3431,1930.3 3431,2106.3 3414.5,2110.5 3393.5,2114.5 3363.5,2118.8 3337.3,2120.3 
	3314.3,2119.5 3295.4,2117.3 3275,2114 3249.3,2105.8 3226.8,2096 3211.9,2087.1 3180.3,2068 3180.3,1930.3 3180.3,1930.3 "/>
<polygon fill="#838CF2" points="3998.3,1951.5 3745.6,1951.5 3745.6,1928 3597,1928 3597,1765 3441,1765 3441,2103.5 3493.5,2092 
	3520.5,2088 3550,2084 3583.7,2082.5 3627.5,2082.5 3662.5,2083 3709.5,2087.5 3745.5,2093.5 3774.5,2099.5 3794.6,2104.8 
	3808.5,2109.5 3827.5,2118.6 3839.5,2127 3861.5,2146 3879.5,2167 3895.5,2197 3903.5,2221.5 3907,2247.8 3998.3,2247.8 
	3998.3,1951.5 3998.3,1951.5 "/>
<polygon fill="#838CF2" points="2884,2543 2884,2602.5 2905,2603 2924.5,2605.5 2947,2610 2977.5,2618.5 3002,2628.5 3023.5,2639.6 
	3023.5,2543 2884,2543 2884,2543 "/>
<polygon fill="#838CF2" points="3137,2543 3137,2705.2 3168,2714.8 3202.5,2718.5 3266,2720.5 3285.5,2720.1 3285.5,2543 3137,2543 
	3137,2543 "/>
<polygon fill="#838CF2" points="3437,2533 3437,2352.6 3412,2340.5 3381.5,2329 3342,2317.5 3293.5,2305 3262,2300.5 3209,2294.5 
	3184.4,2294.1 3149.5,2294.5 3137,2295.9 3137,2533 3437,2533 3437,2533 "/>
<polygon fill="#838CF2" points="3033.5,2543 3033.5,2644.8 3087.1,2680.5 3102,2689.5 3116.1,2696.8 3127,2701.7 3127,2543 
	3033.5,2543 3033.5,2543 "/>
<polygon fill="#838CF2" points="3127,2296.9 3108,2299 3069,2308 3025,2325.5 2984,2345 2951,2357 2917.2,2366.1 2884,2372 
	2884,2533 3127,2533 3127,2296.9 3127,2296.9 "/>
<polygon fill="#838CF2" points="3625.5,2533 3624.5,2527.5 3617,2505.5 3608,2486.5 3591.5,2462.5 3568.5,2435 3547.5,2417.5 
	3523,2400.5 3497.5,2383 3470.5,2369 3447,2357.4 3447,2533 3625.5,2533 3625.5,2533 "/>
<polygon fill="#838CF2" points="3631,2562.7 3627.4,2543 3447,2543 3447,2652.5 3447,2652.5 3447,2657.5 3447,2662.5 3447,2662.5 
	3442,2662.5 3437,2662.5 3295.5,2662.5 3295.5,2719.8 3519.5,2714.8 3579.5,2710.5 3589.2,2708.4 3596.5,2704.5 3610.5,2693.5 
	3616.7,2685 3620.5,2677.5 3623.8,2663.2 3632,2607.5 3632,2582 3631,2562.7 3631,2562.7 "/>
<polygon fill="#838CF2" points="3447,2657.5 3447,2652.5 3447,2652.5 3447,2657.5 3447,2657.5 3447,2657.5 "/>
<polygon fill="#838CF2" points="3447,2662.5 3447,2662.5 3447,2657.5 3447,2657.5 3447,2662.5 3447,2662.5 "/>
<polygon fill="#838CF2" points="2151,1710 2151,1618.7 2360.5,1618.7 2360.5,1710 2151,1710 2151,1710 "/>
<polygon fill="#838CF2" points="2151,1764 2151.5,1860.3 2151,1885.5 2155.3,1911.5 2164.3,1938 2172.5,1952.3 2186.3,1974 
	2200,1989.3 2209,1997.8 2225,2008.5 2248.8,2022.3 2272.8,2029.5 2287.8,2033.5 2308.8,2035.8 2339.5,2035.8 2356.8,2033.8 
	2374.5,2030.3 2391.5,2024 2408.5,2015.5 2422.3,2007.5 2437.3,1996.5 2448.5,1987 2458.8,1976 2471.3,1960.5 2481,1948.5 
	2495.3,1929.3 2505.3,1911.7 2505.3,1764 2151,1764 2151,1764 "/>
<polygon fill="#838CF2" points="2515.7,1618.7 2515.7,1764 2515.5,1897.5 2527,1882 2548.5,1859.5 2567.5,1842.5 2581.9,1832.3 
	2596.8,1822.8 2621.3,1809.7 2635.5,1802.8 2645.3,1797.8 2666.3,1789.5 2689,1782.8 2713,1778 2731.8,1775 2758,1772.3 
	2776.8,1771.8 2812.5,1772.1 2814,1772.2 2814,1618.7 2515.7,1618.7 2515.7,1618.7 "/>
<polygon fill="#838CF2" points="2986,1618.7 2986,1814.1 2997.3,1823.3 3018.5,1841.3 3038.3,1863.8 3052.5,1882.3 3072.3,1915 
	3089.7,1952.1 3089.7,1935 3089.7,1618.7 2986,1618.7 2986,1618.7 "/>
<polygon fill="#838CF2" points="2824,1618.7 2824,1772.3 2845.5,1772.5 2868.8,1774.8 2896.3,1779.8 2913.5,1783.3 2939.3,1791 
	2966,1802 2976,1807.5 2976,1618.7 2824,1618.7 2824,1618.7 "/>
<polygon fill="#838CF2" points="2223,3148 2223,3309 2353,3309 2353,3148 2223,3148 2223,3148 "/>
<polygon fill="#838CF2" points="2656,3003 2651,3009 2634.6,3030.4 2616,3052 2592,3073.8 2565,3094 2526,3117 2495,3131 2450,3143 
	2413,3148 2363,3148 2363,3309 2656,3309 2656,3003 2656,3003 "/>
<polygon fill="#838CF2" points="2968.3,3126.3 3280.5,3126.3 3280.5,2829 2916,2829 2873.9,2831.1 2846.2,2834.1 2819,2839 
	2794,2850.4 2780,2859.7 2762,2875 2666,2990.9 2666,3309 2968.3,3309 2968.3,3126.3 2968.3,3126.3 "/>
<polygon fill="#838CF2" points="3882,3046 3831,3030 3785,3010 3743,2983 3702,2946 3675,2912 3649,2877 3627,2855 3610.6,2844.4 
	3589,2836 3560.9,2831.6 3544,2829 3290.5,2829 3290.5,3309 3429,3309 3429,3142 3602.5,3142 3602.5,3309 3894.5,3309 
	3894.5,3047.7 3882,3046 3882,3046 "/>
<polygon fill="#838CF2" points="4307,3245 4277,3212 4232,3172 4195,3145 4150,3118 4100,3095 4048,3076 3986,3060 3918,3051 
	3904.5,3049.1 3904.5,3309 4307,3309 4307,3245 4307,3245 "/>
<polygon fill="#838CF2" points="3439,3309 3439,3152 3592.5,3152 3592.5,3309 3439,3309 3439,3309 "/>
<polygon fill="#838CF2" points="1190,3144 1190,3310.3 1327,3310.3 1327,3144 1190,3144 1190,3144 "/>
<polygon fill="#838CF2" points="901.3,3067.7 870.3,3063.7 840.3,3063.7 812.3,3067.7 785.7,3073.7 757,3085.3 733,3098.3 710,3115 
	695.6,3131 686,3143.7 729,3143.7 729,3210.7 721,3210.7 721,3310.3 929,3310.3 929,3075.4 901.3,3067.7 901.3,3067.7 "/>
<polygon fill="#838CF2" points="1151.7,3144 1119,3142.7 1100,3140 1078.7,3136 1054,3129.3 1037,3124.3 1014.3,3115 1002.7,3109 
	981.7,3097 954,3084.3 939,3078.7 939,3310.3 1180,3310.3 1180,3144 1151.7,3144 1151.7,3144 "/>
<polygon fill="#838CF2" points="1858.3,3211 1782.7,3211 1782.7,3144 1498,3144 1498,3310.3 1858.3,3310.3 1858.3,3211 1858.3,3211 
	"/>
<polygon fill="#838CF2" points="1337,3144 1337,3310.3 1488,3310.3 1488,3144 1337,3144 1337,3144 "/>
<polygon fill="#838CF2" points="848.8,2296.5 936.3,2296.5 942.3,2298.5 946.5,2302.3 948.5,2305.3 950.3,2312 950.3,2411.8 
	949,2418.5 945.8,2423 941,2425.3 934.8,2426.5 847.3,2426.5 840.5,2425.3 837.5,2422.5 834.5,2418.8 833.3,2414.5 833.3,2312.5 
	834.3,2308.8 837,2304 840,2300.3 844.3,2297.5 848.8,2296.5 848.8,2296.5 "/>
<polygon fill="#838CF2" points="817.8,2791 937.3,2791 943.3,2793 947.5,2796.8 949.5,2799.8 951.3,2806.5 951.3,2887.3 950,2894 
	946.8,2898.5 942,2900.8 935.8,2902 816.3,2902 809.5,2900.8 806.5,2898 803.5,2894.3 802.3,2890 802.3,2807 803.3,2803.3 
	806,2798.5 809,2794.8 813.3,2792 817.8,2791 817.8,2791 "/>
<polygon fill="#838CF2" points="949.5,2489.6 947.5,2487.1 943.3,2484.1 937.3,2482.5 881.8,2482.5 881.8,2587.5 935.8,2587.5 
	942,2586.5 946.8,2584.7 950,2581 951.3,2575.6 951.3,2495 949.5,2489.6 949.5,2489.6 "/>
<polygon fill="#838CF2" points="817.8,2482.5 813.3,2483.3 809,2485.5 806,2488.6 803.3,2492.4 802.3,2495.4 802.3,2577.8 
	803.5,2581.2 806.5,2584.3 809.5,2586.5 816.3,2587.5 871.8,2587.5 871.8,2482.5 817.8,2482.5 817.8,2482.5 "/>
<polygon fill="#838CF2" points="949.5,2649.6 947.5,2647.1 943.3,2644.1 937.3,2642.5 881.8,2642.5 881.8,2747.5 935.8,2747.5 
	942,2746.5 946.8,2744.7 950,2741 951.3,2735.6 951.3,2655 949.5,2649.6 949.5,2649.6 "/>
<polygon fill="#838CF2" points="817.8,2642.5 813.3,2643.3 809,2645.5 806,2648.6 803.3,2652.4 802.3,2655.4 802.3,2737.8 
	803.5,2741.2 806.5,2744.3 809.5,2746.5 816.3,2747.5 871.8,2747.5 871.8,2642.5 817.8,2642.5 817.8,2642.5 "/>
<polygon fill="#838CF2" points="409,2065 593.7,2065 608.3,2066 623.4,2071.6 635.7,2077 649.7,2089.7 657,2102.3 661.7,2117.3 
	661.7,2384.3 662.6,2399.2 665.7,2413.7 676.3,2441.7 689,2465 705.3,2490.3 711.3,2502.7 715.3,2515 716.3,2526 716.3,2613.7 
	409,2613.7 409,2065 409,2065 "/>
<polygon fill="#838CF2" points="409,2691.7 542.6,2691.7 542.6,2846.5 409,2846.5 409,2691.7 409,2691.7 "/>
<polygon fill="#838CF2" points="409,2921 409,3002.7 510.2,3002.7 510.2,2945.7 565,2945.7 565,2921 409,2921 409,2921 "/>
<polygon fill="#838CF2" points="645,2640 716.3,2640 716.3,2846.5 645,2846.5 645,2640 645,2640 "/>
<polygon fill="#838CF2" points="575,2921 645,2921 645,2856.8 715.3,2856.8 713.3,2866.5 709.7,2876 707,2882.2 700.7,2896.5 
	693.7,2908.3 680.7,2928 669.3,2943 657.3,2955.7 642,2968 626.7,2978.3 606.3,2989.3 590.3,2996.2 575,3002.7 575,2921 575,2921 
	"/>
<polygon fill="#C2C2C2" points="552.6,2691.7 635.3,2691.7 635.3,2846.5 552.6,2846.5 552.6,2691.7 552.6,2691.7 "/>
<polygon fill="#838CF2" points="1755.7,2202.5 1657.1,2216.8 1652.4,2217.5 1646,2221 1642.4,2226.3 1640.7,2235 1630,2361.4 
	1630,2379 1755.7,2379 1755.7,2202.5 1755.7,2202.5 "/>
<polygon fill="#838CF2" points="1630.1,2389 1630.7,2409.9 1642.7,2522.7 1644.5,2530.2 1650,2537 1656,2542.4 1666,2546 
	1755.7,2546 1755.7,2389 1630.1,2389 1630.1,2389 "/>
<polygon fill="#838CF2" points="2006.7,2379 2006.7,2230 2000.6,2217 1986.2,2204 1963,2196 1765.7,2201.8 1765.7,2379 2006.7,2379 
	2006.7,2379 "/>
<polygon fill="#838CF2" points="1765.7,2546 1985.4,2546 1991.6,2544 2001.6,2537 2006.7,2527 2006.7,2389 1765.7,2389 1765.7,2546 
	1765.7,2546 "/>
<polygon fill="#838CF2" points="1428,2548.5 1429,2554 1434,2560.5 1443,2564.5 1543,2564.5 1554,2562.5 1560,2558.5 1566,2548.5 
	1574.9,2396.3 1420.4,2396.3 1428,2548.5 1428,2548.5 "/>
<polygon fill="#838CF2" points="1574.8,2386.3 1571,2244.5 1569.5,2237.6 1567.5,2233.5 1563.5,2230.3 1560,2228.5 1554.3,2227.2 
	1500,2224.1 1500,2386.3 1574.8,2386.3 1574.8,2386.3 "/>
<polygon fill="#838CF2" points="1490,2223.1 1446.5,2218 1443.8,2218 1440.2,2218.5 1437.3,2219.4 1435,2220.5 1432,2223 
	1430.1,2226.1 1428.5,2228.5 1427.5,2231.5 1420.1,2386.3 1490,2386.3 1490,2223.1 1490,2223.1 "/>
<polygon fill="#838CF2" points="1362.3,2384 1363.5,2361.5 1359.5,2309.5 1355.5,2261.5 1348.5,2218 1345,2202.5 1339,2191.5 
	1202.2,2119.6 1189,2114.2 1189,2384 1362.3,2384 1362.3,2384 "/>
<polygon fill="#838CF2" points="1019.5,2394 1019.5,2550 1022,2562 1027.5,2571 1035,2578 1045,2583.5 1056,2587.5 1179,2587.5 
	1179,2394 1019.5,2394 1019.5,2394 "/>
<polygon fill="#838CF2" points="1179,2110 1153.5,2105 1130,2105 1110.5,2108 1094,2113 1077,2122 1061,2134.5 1049.5,2147.5 
	1041.5,2159.8 1034,2172 1028,2183 1021.5,2199.5 1019.5,2218 1019.5,2384 1179,2384 1179,2110 1179,2110 "/>
<polygon fill="#838CF2" points="1189,2587.5 1309,2587.5 1319.9,2586.1 1330,2581 1339,2571 1345.5,2556.5 1358.5,2480.4 1361,2408 
	1361.8,2394 1189,2394 1189,2587.5 1189,2587.5 "/>
<polygon fill="#838CF2" points="1019.8,2859.8 1019.8,3011.8 1022.8,3018 1027.3,3022.8 1036,3030 1050.9,3038.5 1069,3047.8 
	1098.5,3058.5 1131.5,3068 1160,3072.8 1180.5,3075.4 1180.5,2859.8 1019.8,2859.8 1019.8,2859.8 "/>
<polygon fill="#838CF2" points="1362.4,2786 1356.5,2685.5 1353.5,2676.5 1350,2669 1343,2659.5 1334,2652 1323,2646.5 
	1315.9,2644.2 1309,2642.5 1190.5,2642.5 1190.5,2786 1362.4,2786 1362.4,2786 "/>
<polygon fill="#838CF2" points="1190.5,3075.8 1217.5,3076.5 1309,3076.5 1315,3075.3 1322,3073.5 1334.5,3066 1344,3056.5 
	1348.2,3048.1 1350.5,3039.5 1360,2959 1361.7,2938.8 1190.5,2938.8 1190.5,3075.8 1190.5,3075.8 "/>
<polygon fill="#838CF2" points="1180.5,2642.5 1062,2642.5 1055.8,2642.5 1048.5,2643.5 1042.8,2645.4 1036.8,2648.5 1028,2656.8 
	1024.5,2661.5 1022,2668 1020.5,2675 1019.8,2678.8 1019.8,2849.8 1180.5,2849.8 1180.5,2642.5 1180.5,2642.5 "/>
<polygon fill="#838CF2" points="1362.5,2796 1190.5,2796 1190.5,2928.8 1362.5,2928.8 1362.5,2823.5 1362.5,2796 1362.5,2796 "/>
<polygon fill="#838CF2" points="1502.6,2969.1 1568.5,2969.1 1570.7,2791 1502.6,2791 1502.6,2969.1 1502.6,2969.1 "/>
<polygon fill="#838CF2" points="1492.6,2791 1421.5,2791 1421.5,2931.8 1423.6,2969.1 1492.6,2969.1 1492.6,2791 1492.6,2791 "/>
<polygon fill="#838CF2" points="1565.3,2654.3 1562,2648.5 1555.5,2644.3 1547.7,2642.5 1441.7,2642.5 1435.3,2644 1430.8,2646.3 
	1426.6,2651 1425.8,2657 1421.8,2781 1570.6,2781 1565.3,2654.3 1565.3,2654.3 "/>
<polygon fill="#838CF2" points="1429,3064.8 1432,3069.5 1437,3073.8 1441.2,3075.9 1444.5,3076.5 1546,3076.5 1549.8,3075.3 
	1553.8,3073.5 1559.3,3069.5 1562.5,3064.8 1563.8,3056.5 1568.1,2979.1 1424.2,2979.1 1429,3064.8 1429,3064.8 "/>
<polygon fill="#838CF2" points="1777,2631 1663.7,2631 1660.1,2631.6 1656.1,2632.9 1653.7,2634.7 1650.3,2637.1 1647.3,2640.8 
	1645.9,2644.1 1645,2646.5 1639.5,2679.3 1632,2745.5 1629.3,2816.5 1629.3,2840.8 1777,2840.8 1777,2631 1777,2631 "/>
<polygon fill="#838CF2" points="1629.3,2909.8 1642,3047.3 1642.8,3051.5 1644.2,3055.8 1645.6,3058.9 1648.3,3062.4 1650.4,3064.8 
	1652.3,3066.7 1657,3070 1662.5,3072.8 1667.1,3074.4 1671,3075.4 1702.3,3075.4 1702.3,2918.3 1777,2918.3 1777,2850.8 
	1629.3,2850.8 1629.3,2909.8 1629.3,2909.8 "/>
</svg>
